<?xml version="1.0" encoding="utf-8"?>
<!-- Generator: Adobe Illustrator 19.1.1, SVG Export Plug-In . SVG Version: 6.00 Build 0)  -->
<svg version="1.1" id="レイヤー_1" xmlns="http://www.w3.org/2000/svg" xmlns:xlink="http://www.w3.org/1999/xlink" x="0px"
	 y="0px" viewBox="0 0 720 720" style="enable-background:new 0 0 720 720;" xml:space="preserve">
<g>
	<path d="M474.2,516.5c19.9-11.7,42.7-10.5,62.7-21.2c-61.9-3.6-122.7,4.6-185.1,3.1c3.1,6.9,6.4,7.6,10.8,6.7
		c4.9-1.1,9.8-1.9,11.2,5.1c0.5,2.3,2.2,2.1,4,1.6c8-1.9,14.5,1.6,20.1,6.5c6.7,5.9,13.9,8.9,23,8.1c8-0.8,16.2-0.9,22.5,5.8
		c1.4,1.5,3.8,0.6,5.6,0c4.5-1.6,8.6-0.3,9.7,4c1.5,5.9-4.1,5.5-7.8,6.3c-9.2,2.1-18.4,1.8-27.8,0.6c-14.9-2-30.1,0.9-44.8-2.5
		c-11.4-2.7-23.1-1.7-34.6-2.6c-17.1-1.4-31.5-8.9-45.5-17.2c-7.8-4.7-15.9-7.1-24.4-8.8c-16.6-3.2-33.3-5.7-49.9-9.2
		c-8.7-1.8-16.1-6.9-23-12.3c-7.1-5.6-13.7-11.8-20.1-18.2c-4.1-4.1-8-5.4-13.6-3.3c-13.4,5.1-26,12.4-40.2,15.3
		c-14.6,3.1-28.7,8-43.9,9c-12.3,0.8-24.2,5.3-36.8,4.8c-4.1-0.2-10,1-10.8-3.9c-0.7-4.7,5.1-6,9.1-7.3c11.8-3.8,22.9-9.5,35.7-10.4
		c6.7-0.5,12.4-4.4,17.4-9.7c8.6-9.1,20.2-14.4,30.5-21.3c1.2-0.8,2.5-1.3,3.7-2c16.2-8.8,16.5-10.3,4.6-23.9
		c-2.5-2.8-5-5.5-5.7-9.2c-3-15.6-12.3-28.2-19.3-41.9c-11.4-22.4-24.5-44.2-26.8-70.3c-0.6-6.8-4.1-13.4-6-20.1
		c-1.7-6-6.4-7-12-3.3c-7.1,4.6-14.9,3.3-21.8-0.3c-6.7-3.4-5.9-10.3-5.7-16.6c0.1-3,0.4-5.1,4.2-6c3.7-0.8,7.8-2.9,7.1-8
		c-0.7-4.3-3.8-4.8-7.8-5.9c-5.8-1.5-5.2-8.1-6.2-13c-0.4-2.1,0.7-4.4,0.8-6.7c0.6-13.3,0.8-13.6,13.8-14.8c2.6-0.2,5.2-0.4,7.2-2.2
		c22-20.4,70.1-17.6,94,6.5c16.3,16.4,29.8,34.6,41.5,54.4c8.3,14,18.7,26,34.2,33c11.6,5.2,22.4,12.1,33.9,17.4
		c14.7,6.7,30.3,10.8,45.9,14.6c18.7,4.5,37.3,9.4,55.8,14.4c34.8,9.5,70.2,16.8,105,26.5c8.9,2.5,18.3,3.6,27.4,5.1
		c33.2,5.7,62.6,20.8,90.5,38.7c12.3,7.9,19.7,20.5,26.3,33.7c8.5,17.2,21.6,29.7,40.9,34.7c4.1,1.1,8.2,2.2,12.2,3.6
		c1.8,0.6,4.6,2.1,4.6,3.2c0.3,7.2,5.1,6.5,9.9,6.5c2.4,0,5.6,0.6,5.7,3.9c0.1,2.8-2.4,3.8-4.8,3.7c-20.3-1.5-40.7-2.9-57.6-16.4
		c-0.9-0.7-1.8-1.4-2.5-2.3c-2.9-3-4.7-1.5-6.7,1.2c-13.9,19.3-31.2,32.4-56.4,31.4c-2.6-0.1-5.1,0.5-7.3,1.9
		c-6.8,4.2-14.2,5.5-22,4.7c-5.1-0.5-9.4,3.5-13.9,2.8C501.4,522.5,487.8,519.3,474.2,516.5z"/>
</g>
</svg>
